<?xml version="1.0" standalone="no"?><!DOCTYPE svg PUBLIC "-//W3C//DTD SVG 1.1//EN" "http://www.w3.org/Graphics/SVG/1.1/DTD/svg11.dtd"><svg t="1509628179157" class="icon" style="" viewBox="0 0 1024 1024" version="1.1" xmlns="http://www.w3.org/2000/svg" p-id="3095" xmlns:xlink="http://www.w3.org/1999/xlink" width="16" height="16"><defs><style type="text/css"></style></defs><path d="M812.544 370.688h-79.36c0-128-97.792-225.28-222.208-225.28s-222.208 97.792-222.208 225.28h-79.36c0-153.6 135.168-305.152 301.568-305.152s301.568 151.552 301.568 305.152zM859.648 501.248c0-44.032-35.84-79.36-79.36-79.36h-530.944c-44.032 0-79.36 35.84-79.36 79.36v377.856c0 44.032 35.84 79.36 79.36 79.36h530.944c44.032 0 79.36-35.84 79.36-79.36v-377.856zM578.56 796.672c0 32.768-26.624 59.904-59.904 59.904h-8.704c-32.768 0-59.904-26.624-59.904-59.904v-161.792c0-32.768 26.624-59.904 59.904-59.904h8.704c32.768 0 59.904 26.624 59.904 59.904v161.792z" p-id="3096" fill="#707070"></path></svg>