<?xml version="1.0" standalone="no"?><!DOCTYPE svg PUBLIC "-//W3C//DTD SVG 1.1//EN" "http://www.w3.org/Graphics/SVG/1.1/DTD/svg11.dtd"><svg t="1509628271953" class="icon" style="" viewBox="0 0 1024 1024" version="1.1" xmlns="http://www.w3.org/2000/svg" p-id="3943" xmlns:xlink="http://www.w3.org/1999/xlink" width="32" height="32"><defs><style type="text/css"></style></defs><path d="M504.951467 511.979534c93.490278 0 169.279405-74.001411 169.279405-165.259858 0-91.275843-75.79015-165.247578-169.279405-165.247578-93.486184 0-169.287591 73.971735-169.279405 165.247578C335.671039 437.978123 411.465283 511.979534 504.951467 511.979534zM582.550823 567.078433 441.46555 567.078433c-120.766504 0-218.677465 95.563496-218.677465 213.450417l0 13.770632c0 48.182372 97.91096 48.228421 218.677465 48.228421l141.085272 0c120.754225 0 218.661092-1.780553 218.661092-48.228421l0-13.770632C801.211914 662.641929 703.313234 567.078433 582.550823 567.078433z" p-id="3944"></path></svg>